<svg xmlns="http://www.w3.org/2000/svg" xmlns:xlink="http://www.w3.org/1999/xlink" width="500" zoomAndPan="magnify" viewBox="0 0 375 374.999991" height="500" preserveAspectRatio="xMidYMid meet" version="1.0"><path fill="#2acb4a" d="M 287.519531 128.6875 C 287.519531 115.15625 287.519531 101.714844 287.519531 88.097656 C 274.050781 88.097656 260.566406 88.097656 246.929688 88.097656 C 246.929688 101.539062 246.929688 115.027344 246.929688 128.6875 C 260.523438 128.6875 273.964844 128.6875 287.519531 128.6875 Z M 295.777344 79.773438 C 295.777344 98.765625 295.777344 117.738281 295.777344 136.730469 C 295.328125 136.773438 294.851562 136.839844 294.402344 136.839844 C 276.503906 136.859375 258.609375 136.859375 240.710938 136.839844 C 240.066406 136.839844 239.378906 137.054688 238.691406 136.539062 C 238.691406 135.894531 238.691406 135.160156 238.691406 134.453125 C 238.691406 123.117188 238.691406 111.78125 238.710938 100.445312 C 238.710938 93.5625 238.777344 86.65625 238.820312 79.773438 C 257.8125 79.773438 276.785156 79.773438 295.777344 79.773438 " fill-opacity="1" fill-rule="nonzero"/><path fill="#2acb4a" d="M 87.902344 127.976562 C 101.238281 127.976562 114.511719 127.976562 127.914062 127.976562 C 127.914062 114.707031 127.914062 101.390625 127.914062 87.945312 C 114.664062 87.945312 101.367188 87.945312 87.902344 87.945312 C 87.902344 101.367188 87.902344 114.621094 87.902344 127.976562 Z M 135.957031 79.773438 C 135.980469 80.03125 136.042969 80.289062 136.042969 80.546875 C 136.042969 98.746094 136.042969 116.921875 136.042969 135.117188 C 136.042969 135.441406 136.109375 135.765625 135.785156 135.980469 C 117.15625 135.980469 98.53125 135.980469 79.773438 135.980469 C 79.773438 117.179688 79.773438 98.464844 79.773438 79.773438 C 98.488281 79.773438 117.222656 79.773438 135.957031 79.773438 " fill-opacity="1" fill-rule="nonzero"/><path fill="#2acb4a" d="M 246.777344 287.496094 C 260.328125 287.496094 273.792969 287.496094 287.433594 287.496094 C 287.433594 274.007812 287.433594 260.5 287.433594 246.84375 C 273.964844 246.84375 260.457031 246.84375 246.777344 246.84375 C 246.777344 260.457031 246.777344 273.921875 246.777344 287.496094 Z M 295.777344 295.777344 C 276.742188 295.777344 257.683594 295.777344 238.691406 295.777344 C 238.691406 276.589844 238.691406 257.660156 238.691406 238.582031 C 239.3125 238.582031 239.828125 238.582031 240.347656 238.582031 C 252.304688 238.582031 264.285156 238.582031 276.246094 238.582031 C 282.765625 238.605469 289.261719 238.667969 295.777344 238.710938 C 295.777344 257.726562 295.777344 276.761719 295.777344 295.777344 " fill-opacity="1" fill-rule="nonzero"/><path fill="#2acb4a" d="M 218.148438 79.773438 C 218.148438 85.453125 218.148438 91.128906 218.148438 97.003906 C 212.277344 97.003906 206.617188 97.003906 200.875 97.003906 C 200.875 99.949219 200.875 102.722656 200.875 105.585938 C 209.414062 105.585938 217.890625 105.585938 226.578125 105.585938 C 226.578125 97.003906 226.578125 88.375 226.578125 79.773438 C 223.785156 79.773438 220.964844 79.773438 218.148438 79.773438 " fill-opacity="1" fill-rule="nonzero"/><path fill="#2acb4a" d="M 295.777344 192.421875 C 293.046875 191.5625 290.25 192.398438 287.324219 191.949219 C 287.324219 203.5625 287.324219 214.964844 287.324219 226.578125 C 290.054688 226.578125 292.917969 226.578125 295.777344 226.578125 C 295.777344 215.199219 295.777344 203.800781 295.777344 192.421875 " fill-opacity="1" fill-rule="nonzero"/><path fill="#2acb4a" d="M 192.421875 79.773438 C 191.539062 82.503906 192.378906 85.300781 191.949219 88.226562 C 197.800781 88.226562 203.433594 88.226562 209.285156 88.226562 C 209.285156 85.496094 209.285156 82.632812 209.285156 79.773438 C 203.671875 79.773438 198.035156 79.773438 192.421875 79.773438 " fill-opacity="1" fill-rule="nonzero"/><path fill="#2acb4a" d="M 148.972656 79.773438 C 148.972656 82.570312 148.972656 85.34375 148.972656 88.269531 C 151.765625 88.269531 154.519531 88.269531 157.402344 88.269531 C 157.402344 85.453125 157.402344 82.613281 157.402344 79.773438 C 154.585938 79.773438 151.765625 79.773438 148.972656 79.773438 " fill-opacity="1" fill-rule="nonzero"/><path fill="#2acb4a" d="M 166.265625 79.773438 C 166.242188 81.792969 166.242188 83.839844 166.199219 85.859375 C 166.15625 87.558594 167.082031 88.355469 168.675781 88.398438 C 170.609375 88.460938 172.566406 88.417969 174.695312 88.417969 C 174.695312 85.472656 174.695312 82.613281 174.695312 79.773438 C 171.878906 79.773438 169.0625 79.773438 166.265625 79.773438 " fill-opacity="1" fill-rule="nonzero"/><path fill="#2acb4a" d="M 148.820312 226.792969 C 140.300781 226.792969 131.785156 226.792969 123.09375 226.792969 C 123.09375 235.269531 123.09375 243.789062 123.09375 252.457031 C 131.65625 252.457031 140.171875 252.457031 148.820312 252.457031 C 148.820312 243.917969 148.820312 235.441406 148.820312 226.792969 Z M 149.078125 209.15625 C 151.851562 209.15625 154.628906 209.15625 157.617188 209.15625 C 157.617188 218.148438 157.617188 226.6875 157.617188 235.421875 C 160.585938 235.421875 163.359375 235.421875 166.265625 235.421875 C 166.265625 238.347656 166.265625 241.054688 166.265625 243.894531 C 169.125 243.832031 171.835938 244.132812 174.546875 243.746094 L 174.503906 243.703125 C 175.128906 246.605469 174.609375 249.53125 174.828125 252.671875 C 171.816406 252.671875 169.0625 252.671875 166.179688 252.671875 C 166.351562 255.617188 165.964844 258.328125 166.394531 261.058594 L 166.4375 260.996094 C 165.855469 261.363281 165.210938 261.210938 164.585938 261.210938 C 158.328125 261.210938 152.089844 261.210938 145.832031 261.210938 C 144.023438 261.210938 142.214844 261.210938 140.214844 261.210938 C 140.214844 267.0625 140.214844 272.71875 140.214844 278.546875 C 137.246094 278.546875 134.472656 278.546875 131.613281 278.546875 C 131.613281 281.472656 131.613281 284.207031 131.613281 286.980469 C 128.664062 286.980469 125.847656 286.980469 122.859375 286.980469 C 122.859375 281.214844 122.859375 275.621094 122.859375 270.03125 C 116.964844 270.03125 111.21875 270.03125 105.476562 270.03125 L 105.519531 270.074219 C 105.820312 267.148438 105.671875 264.242188 105.628906 261.148438 C 102.636719 261.148438 99.863281 261.148438 97.21875 261.148438 C 97.21875 258.15625 97.21875 255.402344 97.21875 252.5 C 102.980469 252.5 108.574219 252.5 114.210938 252.5 C 114.210938 246.714844 114.210938 241.078125 114.210938 235.355469 C 108.445312 235.355469 102.832031 235.355469 97.195312 235.355469 C 97.195312 229.527344 97.195312 223.804688 97.195312 217.953125 C 105.820312 217.953125 114.296875 217.953125 122.988281 217.953125 C 122.988281 215.027344 122.988281 212.253906 122.988281 209.480469 C 125.976562 209.480469 128.75 209.480469 131.71875 209.480469 C 131.71875 212.382812 131.71875 215.15625 131.71875 217.953125 C 137.507812 217.953125 143.097656 217.953125 148.800781 217.953125 C 149.1875 214.964844 148.5625 212.015625 149.144531 209.113281 L 149.078125 209.15625 " fill-opacity="1" fill-rule="nonzero"/><path fill="#2acb4a" d="M 191.925781 166.199219 C 194.808594 166.199219 197.671875 166.199219 200.703125 166.199219 C 200.917969 172.007812 200.53125 177.707031 200.984375 183.496094 C 203.714844 183.496094 206.425781 183.496094 209.308594 183.496094 C 209.308594 186.378906 209.308594 189.128906 209.308594 191.433594 C 212.277344 192.335938 215.050781 191.96875 217.976562 192.097656 C 218.148438 195.152344 217.867188 198.121094 218.320312 201.027344 C 218.320312 201.027344 218.277344 200.984375 218.277344 200.984375 C 220.964844 200.445312 223.675781 201.046875 226.558594 200.660156 C 226.558594 194.9375 226.558594 189.238281 226.558594 183.539062 L 226.601562 183.582031 C 223.828125 183.582031 221.03125 183.582031 218.167969 183.582031 C 218.167969 174.761719 218.167969 166.222656 218.167969 157.359375 C 221.03125 157.359375 223.828125 157.359375 226.601562 157.359375 L 226.558594 157.402344 C 226.558594 146.003906 226.558594 134.582031 226.558594 122.945312 C 221.523438 122.945312 216.578125 122.945312 211.609375 122.921875 C 210.878906 122.921875 210.082031 123.203125 209.371094 122.683594 L 209.4375 122.621094 C 209.371094 125.632812 209.308594 128.621094 209.242188 131.632812 L 209.199219 131.570312 C 212.058594 131.570312 214.921875 131.570312 217.933594 131.570312 C 217.933594 134.453125 217.933594 137.160156 217.933594 140.128906 C 215.15625 140.128906 212.339844 140.128906 209.328125 140.128906 C 209.328125 143.164062 209.328125 145.9375 209.328125 148.863281 C 206.46875 148.863281 203.757812 148.863281 200.808594 148.863281 C 200.808594 151.765625 200.808594 154.519531 200.808594 157.488281 C 197.820312 157.488281 195.046875 157.488281 191.992188 157.488281 C 191.992188 160.542969 191.992188 163.402344 191.992188 166.265625 L 191.925781 166.199219 " fill-opacity="1" fill-rule="nonzero"/><path fill="#2acb4a" d="M 148.886719 191.90625 C 149.078125 194.9375 148.648438 197.992188 149.121094 201.027344 C 149.121094 201.027344 149.058594 200.960938 149.058594 200.960938 C 151.980469 200.53125 154.929688 200.832031 157.855469 200.789062 C 163.382812 200.722656 168.933594 200.765625 174.761719 200.765625 C 174.675781 197.714844 175.085938 194.765625 174.503906 191.796875 L 174.546875 191.839844 C 171.835938 192.3125 169.125 191.949219 166.308594 192.078125 C 166.308594 186.269531 166.308594 180.632812 166.308594 174.828125 C 169.105469 174.828125 171.816406 174.828125 174.652344 174.828125 C 174.652344 171.921875 174.652344 169.148438 174.652344 166.242188 C 171.902344 166.242188 169.191406 166.242188 166.308594 166.242188 C 166.308594 157.511719 166.308594 148.929688 166.308594 140.324219 C 163.230469 140.324219 160.4375 140.324219 157.511719 140.324219 C 157.511719 146.046875 157.511719 151.636719 157.511719 157.511719 C 154.605469 157.339844 151.851562 157.789062 149.101562 157.253906 L 149.144531 157.210938 C 148.582031 160.113281 149.164062 163.058594 148.800781 166.15625 C 145.980469 166.15625 143.207031 166.15625 140.214844 166.15625 C 140.214844 171.988281 140.214844 177.644531 140.214844 183.429688 C 137.3125 183.429688 134.601562 183.429688 131.613281 183.429688 C 131.613281 186.355469 131.613281 189.128906 131.613281 191.925781 L 131.546875 191.863281 C 137.355469 192.269531 143.140625 192.078125 148.949219 191.96875 C 148.949219 186.269531 148.949219 180.546875 148.949219 174.914062 C 151.960938 174.914062 154.671875 174.914062 157.359375 174.914062 C 157.359375 180.675781 157.359375 186.3125 157.359375 191.90625 C 154.457031 191.90625 151.660156 191.90625 148.886719 191.90625 " fill-opacity="1" fill-rule="nonzero"/><path fill="#2acb4a" d="M 122.640625 192.121094 C 123.265625 191 122.921875 189.796875 122.921875 188.636719 C 122.988281 184.074219 122.945312 179.535156 122.945312 174.871094 C 120.0625 174.871094 117.351562 174.871094 114.382812 174.871094 C 114.382812 177.644531 114.382812 180.484375 114.382812 183.410156 C 108.554688 183.410156 102.9375 183.410156 97.132812 183.410156 C 97.132812 186.292969 97.132812 189.042969 97.132812 192.011719 C 94.183594 192.011719 91.386719 192.011719 88.417969 192.011719 C 88.417969 194.980469 88.417969 197.757812 88.417969 200.660156 C 85.496094 200.660156 82.785156 200.660156 79.921875 200.660156 C 79.921875 215.09375 79.921875 229.375 79.921875 243.851562 C 82.632812 243.851562 85.410156 243.851562 88.398438 243.851562 C 88.398438 246.820312 88.398438 249.59375 88.398438 252.605469 C 91.195312 252.605469 93.753906 252.628906 96.335938 252.585938 C 97.261719 252.585938 97.238281 252.132812 97.195312 251.25 C 97.046875 248.757812 97.261719 246.238281 97.21875 243.765625 C 97.195312 241.035156 97.28125 238.257812 96.960938 235.3125 C 94.164062 235.3125 91.386719 235.3125 88.527344 235.3125 C 88.527344 229.503906 88.527344 223.914062 88.527344 218.148438 C 91.300781 218.148438 94.078125 218.148438 97.152344 218.148438 C 97.152344 212.320312 97.152344 206.660156 97.152344 200.808594 C 99.949219 200.808594 102.722656 200.808594 105.691406 200.808594 C 105.691406 197.84375 105.691406 195.046875 105.691406 192.078125 C 111.5 192.078125 117.09375 192.078125 122.683594 192.078125 C 122.707031 192.078125 122.640625 192.121094 122.640625 192.121094 " fill-opacity="1" fill-rule="nonzero"/><path fill="#2acb4a" d="M 209.371094 122.683594 C 209.371094 119.976562 209.371094 117.242188 209.371094 114.402344 C 203.585938 114.402344 197.992188 114.402344 192.183594 114.402344 C 192.183594 108.640625 192.183594 102.980469 192.183594 96.960938 C 189.238281 96.960938 186.464844 96.960938 183.6875 96.960938 L 183.730469 96.917969 C 183.195312 100.464844 183.601562 104.035156 183.496094 107.585938 C 183.453125 109.757812 183.496094 111.910156 183.496094 114.273438 C 177.730469 114.273438 172.074219 114.273438 166.308594 114.273438 C 166.308594 122.988281 166.308594 131.503906 166.308594 140.128906 C 169.0625 140.128906 171.773438 140.128906 174.71875 140.128906 C 174.71875 137.398438 174.71875 134.644531 174.71875 131.546875 C 177.859375 131.546875 180.761719 131.546875 183.6875 131.546875 L 183.625 131.613281 C 183.625 128.816406 183.625 126.042969 183.625 123.203125 C 184.269531 122.707031 185.085938 122.964844 185.816406 122.964844 C 193.023438 122.945312 200.230469 122.964844 207.414062 122.945312 C 208.101562 122.945312 208.832031 123.179688 209.4375 122.640625 C 209.4375 122.621094 209.371094 122.683594 209.371094 122.683594 " fill-opacity="1" fill-rule="nonzero"/><path fill="#2acb4a" d="M 88.246094 166.222656 C 85.429688 166.222656 82.699219 166.222656 79.878906 166.222656 C 79.878906 174.847656 79.878906 183.386719 79.878906 191.96875 C 82.71875 191.96875 85.496094 191.96875 88.417969 191.96875 C 88.417969 186.269531 88.417969 180.675781 88.417969 174.871094 C 91.324219 174.871094 94.078125 174.871094 97.152344 174.871094 C 97.152344 169.019531 97.152344 163.359375 97.152344 157.511719 C 99.972656 157.511719 102.746094 157.511719 105.605469 157.511719 C 105.605469 154.585938 105.605469 151.875 105.605469 149.035156 C 97.066406 149.035156 88.527344 149.035156 79.878906 149.035156 C 79.878906 151.808594 79.878906 154.585938 79.878906 157.46875 C 82.675781 157.46875 85.386719 157.46875 88.246094 157.46875 C 88.246094 160.371094 88.246094 163.144531 88.246094 166.222656 " fill-opacity="1" fill-rule="nonzero"/><path fill="#2acb4a" d="M 88.527344 261.277344 C 85.410156 261.277344 82.699219 261.277344 79.878906 261.277344 C 79.878906 272.761719 79.878906 284.164062 79.878906 295.671875 C 91.324219 295.671875 102.722656 295.671875 114.253906 295.671875 C 114.253906 292.851562 114.253906 290.078125 114.253906 287.175781 C 105.691406 287.175781 97.21875 287.175781 88.527344 287.175781 C 88.527344 278.484375 88.527344 269.945312 88.527344 261.277344 " fill-opacity="1" fill-rule="nonzero"/><path fill="#2acb4a" d="M 270.203125 209.15625 C 269.535156 208.273438 269.921875 207.285156 269.902344 206.339844 C 269.859375 201.671875 269.878906 197.003906 269.878906 191.882812 C 266.910156 191.882812 264.09375 191.882812 261.277344 191.882812 L 261.339844 191.839844 C 261.339844 194.746094 261.339844 197.671875 261.339844 200.722656 C 258.308594 200.722656 255.597656 200.722656 252.671875 200.722656 C 252.671875 203.605469 252.671875 206.359375 252.671875 209.265625 C 249.59375 209.265625 246.757812 209.265625 243.917969 209.265625 L 243.980469 209.199219 C 243.894531 212.230469 243.789062 215.285156 244.046875 218.320312 L 243.980469 218.253906 C 246.757812 217.804688 249.550781 218.210938 252.5 218.019531 C 252.5 220.902344 252.5 223.609375 252.5 226.492188 C 255.402344 226.492188 258.179688 226.492188 261.125 226.492188 C 261.125 220.921875 261.125 215.265625 261.125 209.523438 C 264.265625 209.050781 267.296875 209.714844 270.246094 209.113281 L 270.203125 209.15625 " fill-opacity="1" fill-rule="nonzero"/><path fill="#2acb4a" d="M 261.082031 157.53125 C 267.039062 157.53125 272.65625 157.53125 278.375 157.53125 C 278.375 154.648438 278.375 151.875 278.375 149.015625 C 269.816406 149.015625 261.277344 149.015625 252.671875 149.015625 C 252.671875 157.597656 252.671875 166.070312 252.671875 174.675781 C 255.445312 174.675781 258.15625 174.675781 261.082031 174.675781 C 261.082031 169.105469 261.082031 163.449219 261.082031 157.53125 " fill-opacity="1" fill-rule="nonzero"/><path fill="#2acb4a" d="M 149.101562 157.253906 C 148.648438 154.5625 149.121094 151.832031 148.84375 149.015625 C 140.214844 149.015625 131.699219 149.015625 122.964844 149.015625 C 122.964844 157.574219 122.964844 166.070312 122.964844 174.675781 C 125.847656 174.675781 128.621094 174.675781 131.589844 174.675781 C 131.589844 169.019531 131.589844 163.359375 131.589844 157.511719 C 136.195312 157.511719 140.582031 157.53125 144.992188 157.488281 C 146.367188 157.46875 147.789062 157.789062 149.144531 157.210938 C 149.144531 157.210938 149.101562 157.253906 149.101562 157.253906 " fill-opacity="1" fill-rule="nonzero"/><path fill="#2acb4a" d="M 166.4375 260.996094 C 165.921875 263.921875 166.328125 266.824219 166.179688 269.902344 C 169.125 269.902344 171.835938 269.902344 174.71875 269.902344 C 174.71875 272.742188 174.71875 275.449219 174.71875 278.332031 C 177.664062 278.332031 180.484375 278.332031 183.386719 278.332031 C 183.386719 269.792969 183.386719 261.253906 183.386719 252.691406 C 180.503906 252.691406 177.730469 252.691406 174.828125 252.691406 C 174.828125 255.511719 174.828125 258.222656 174.828125 261.058594 C 171.921875 261.058594 169.167969 261.058594 166.394531 261.058594 C 166.394531 261.058594 166.4375 260.996094 166.4375 260.996094 " fill-opacity="1" fill-rule="nonzero"/><path fill="#2acb4a" d="M 261.277344 191.882812 C 261.277344 189.171875 261.277344 186.441406 261.277344 183.515625 C 258.328125 183.515625 255.554688 183.515625 252.628906 183.515625 C 252.628906 180.546875 252.628906 177.75 252.628906 174.71875 C 249.574219 174.71875 246.714844 174.71875 243.851562 174.71875 L 243.917969 174.652344 C 243.917969 177.578125 243.917969 180.484375 243.917969 183.582031 C 240.882812 183.582031 238.152344 183.582031 235.441406 183.582031 L 235.484375 183.539062 C 235.164062 186.3125 235.378906 189.109375 235.378906 192.078125 C 241.183594 192.078125 246.84375 192.097656 252.519531 192.054688 C 255.445312 192.011719 258.414062 192.335938 261.320312 191.839844 C 261.339844 191.839844 261.277344 191.882812 261.277344 191.882812 " fill-opacity="1" fill-rule="nonzero"/><path fill="#2acb4a" d="M 209.113281 261.015625 C 212.015625 261.511719 214.964844 260.953125 217.976562 261.339844 C 217.976562 267.019531 217.976562 272.613281 217.976562 278.355469 C 220.859375 278.355469 223.609375 278.355469 226.515625 278.355469 C 226.515625 269.878906 226.515625 261.363281 226.515625 252.714844 C 220.859375 252.714844 215.222656 252.714844 209.179688 252.714844 C 209.179688 255.511719 209.179688 258.285156 209.179688 261.058594 L 209.113281 261.015625 " fill-opacity="1" fill-rule="nonzero"/><path fill="#2acb4a" d="M 244.046875 218.320312 C 241.226562 217.652344 238.347656 218.320312 235.355469 217.953125 C 235.355469 215.113281 235.355469 212.320312 235.355469 209.4375 C 232.410156 209.4375 229.632812 209.4375 226.472656 209.4375 C 226.472656 215.15625 226.472656 220.816406 226.472656 226.472656 L 226.40625 226.40625 C 232.152344 226.925781 237.894531 226.472656 243.980469 226.6875 C 243.980469 223.804688 243.980469 221.03125 243.980469 218.253906 C 243.980469 218.253906 244.046875 218.320312 244.046875 218.320312 " fill-opacity="1" fill-rule="nonzero"/><path fill="#2acb4a" d="M 174.503906 243.703125 C 177.40625 244.238281 180.355469 243.660156 183.453125 244.046875 C 183.453125 246.863281 183.453125 249.636719 183.453125 252.519531 C 186.355469 252.519531 189.066406 252.519531 191.925781 252.519531 C 191.925781 246.886719 191.925781 241.25 191.925781 235.464844 C 186.3125 235.464844 180.675781 235.464844 174.933594 235.464844 C 174.4375 238.195312 175.171875 241.011719 174.546875 243.746094 C 174.546875 243.746094 174.503906 243.703125 174.503906 243.703125 " fill-opacity="1" fill-rule="nonzero"/><path fill="#2acb4a" d="M 183.558594 287.238281 C 183.558594 290.078125 183.558594 292.789062 183.558594 295.648438 C 197.757812 295.648438 211.996094 295.648438 226.40625 295.648438 C 226.40625 292.894531 226.40625 290.121094 226.40625 287.238281 C 212.210938 287.238281 198.078125 287.238281 183.558594 287.238281 " fill-opacity="1" fill-rule="nonzero"/><path fill="#2acb4a" d="M 191.925781 209.351562 C 183.515625 209.351562 175.105469 209.351562 166.308594 209.351562 C 166.308594 215.15625 166.308594 220.792969 166.308594 226.535156 C 174.675781 226.535156 182.804688 226.535156 191.753906 226.535156 C 191.753906 220.730469 191.753906 215.007812 191.753906 209.285156 C 191.753906 209.285156 191.925781 209.351562 191.925781 209.351562 " fill-opacity="1" fill-rule="nonzero"/><path fill="#2acb4a" d="M 149.015625 105.605469 C 154.691406 105.605469 160.308594 105.605469 166.007812 105.605469 C 166.609375 102.832031 166.136719 100.058594 166.222656 97.175781 C 160.4375 97.175781 154.777344 97.175781 149.015625 97.175781 C 149.015625 99.972656 149.015625 102.746094 149.015625 105.605469 " fill-opacity="1" fill-rule="nonzero"/><path fill="#2acb4a" d="M 270.246094 209.113281 C 270.136719 209.371094 269.921875 209.609375 269.921875 209.867188 C 269.902344 215.371094 269.902344 220.902344 269.902344 226.535156 C 272.785156 226.535156 275.558594 226.535156 278.398438 226.535156 C 278.398438 220.816406 278.398438 215.179688 278.398438 209.15625 C 275.601562 209.15625 272.914062 209.15625 270.203125 209.15625 C 270.203125 209.15625 270.246094 209.113281 270.246094 209.113281 " fill-opacity="1" fill-rule="nonzero"/><path fill="#2acb4a" d="M 209.179688 261.058594 C 206.445312 261.253906 203.734375 261.339844 201.003906 261.039062 L 201.046875 260.996094 C 200.402344 262.996094 200.832031 265.039062 200.789062 267.039062 C 200.703125 270.761719 200.765625 274.484375 200.765625 278.355469 C 203.5625 278.355469 206.339844 278.355469 209.351562 278.355469 C 209.199219 272.589844 209.628906 266.804688 209.136719 261.015625 C 209.113281 261.015625 209.179688 261.058594 209.179688 261.058594 " fill-opacity="1" fill-rule="nonzero"/><path fill="#2acb4a" d="M 183.6875 131.546875 C 183.214844 137.269531 183.625 142.992188 183.472656 148.820312 C 186.355469 148.820312 189.066406 148.820312 191.925781 148.820312 C 191.925781 143.164062 191.925781 137.527344 191.925781 131.613281 C 189.195312 131.613281 186.398438 131.613281 183.625 131.613281 C 183.625 131.613281 183.6875 131.546875 183.6875 131.546875 " fill-opacity="1" fill-rule="nonzero"/><path fill="#2acb4a" d="M 105.757812 174.695312 C 108.660156 174.695312 111.371094 174.695312 114.230469 174.695312 C 114.230469 169.039062 114.230469 163.382812 114.230469 157.617188 C 111.414062 157.617188 108.640625 157.617188 105.757812 157.617188 C 105.757812 163.296875 105.757812 168.910156 105.757812 174.695312 " fill-opacity="1" fill-rule="nonzero"/><path fill="#2acb4a" d="M 157.46875 287.023438 C 160.480469 287.023438 163.253906 287.023438 166.113281 287.023438 C 166.113281 281.324219 166.113281 275.730469 166.113281 269.878906 C 163.554688 269.878906 160.972656 269.859375 158.390625 269.878906 C 157.640625 269.902344 157.402344 270.246094 157.425781 271.085938 C 157.488281 276.332031 157.46875 281.558594 157.46875 287.023438 " fill-opacity="1" fill-rule="nonzero"/><path fill="#2acb4a" d="M 235.507812 157.445312 C 233.03125 157.46875 230.539062 157.683594 228.105469 157.125 C 227.527344 156.972656 227.160156 157.746094 226.558594 157.402344 L 226.601562 157.359375 C 226.601562 160.285156 226.601562 163.1875 226.601562 166.242188 C 229.761719 166.242188 232.625 166.242188 235.484375 166.242188 L 235.441406 166.285156 C 235.292969 163.316406 235.226562 160.351562 235.441406 157.382812 L 235.507812 157.445312 " fill-opacity="1" fill-rule="nonzero"/><path fill="#2acb4a" d="M 226.558594 183.539062 C 229.527344 183.539062 232.515625 183.539062 235.484375 183.539062 L 235.441406 183.582031 C 235.441406 180.613281 235.441406 177.644531 235.441406 174.675781 L 235.484375 174.71875 C 232.582031 174.71875 229.675781 174.71875 226.601562 174.71875 C 226.601562 177.878906 226.601562 180.742188 226.601562 183.582031 L 226.558594 183.539062 " fill-opacity="1" fill-rule="nonzero"/><path fill="#2acb4a" d="M 131.613281 191.925781 C 128.621094 191.992188 125.632812 192.054688 122.640625 192.121094 C 122.640625 192.121094 122.707031 192.078125 122.683594 192.078125 C 123.289062 194.875 122.683594 197.757812 123.050781 200.660156 C 125.910156 200.660156 128.664062 200.660156 131.546875 200.660156 C 131.546875 197.691406 131.546875 194.789062 131.546875 191.863281 C 131.546875 191.863281 131.613281 191.925781 131.613281 191.925781 " fill-opacity="1" fill-rule="nonzero"/><path fill="#2acb4a" d="M 226.472656 226.472656 C 223.742188 226.472656 221.03125 226.472656 218.191406 226.472656 C 218.191406 229.527344 218.191406 232.300781 218.191406 235.3125 C 220.921875 235.207031 223.65625 235.65625 226.601562 235.226562 C 226.535156 232.257812 226.882812 229.332031 226.429688 226.40625 C 226.40625 226.40625 226.472656 226.472656 226.472656 226.472656 " fill-opacity="1" fill-rule="nonzero"/><path fill="#2acb4a" d="M 278.355469 174.566406 C 275.664062 175.214844 272.933594 174.289062 270.050781 174.933594 C 270.050781 177.664062 270.050781 180.484375 270.050781 183.410156 C 272.785156 183.410156 275.492188 183.410156 278.484375 183.410156 C 278.441406 180.441406 278.675781 177.492188 278.3125 174.503906 L 278.355469 174.566406 " fill-opacity="1" fill-rule="nonzero"/><path fill="#2acb4a" d="M 149.078125 209.15625 C 148.777344 206.425781 148.863281 203.691406 149.058594 200.960938 C 149.058594 200.960938 149.121094 201.027344 149.121094 201.027344 C 146.21875 200.464844 143.3125 200.898438 140.300781 200.765625 C 140.300781 203.714844 140.300781 206.425781 140.300781 209.351562 C 143.3125 209.222656 146.21875 209.628906 149.144531 209.113281 C 149.144531 209.113281 149.078125 209.15625 149.078125 209.15625 " fill-opacity="1" fill-rule="nonzero"/><path fill="#2acb4a" d="M 183.6875 96.960938 C 183.6875 94.183594 183.6875 91.410156 183.6875 88.527344 C 180.527344 88.527344 177.75 88.527344 174.871094 88.527344 C 174.871094 91.34375 174.871094 94.097656 174.871094 96.917969 C 177.878906 96.917969 180.804688 96.917969 183.730469 96.917969 C 183.730469 96.917969 183.6875 96.960938 183.6875 96.960938 " fill-opacity="1" fill-rule="nonzero"/><path fill="#2acb4a" d="M 201.003906 261.039062 C 200.421875 258.351562 201.027344 255.640625 200.660156 252.757812 C 197.863281 252.757812 195.046875 252.757812 192.140625 252.757812 C 192.140625 255.488281 192.140625 258.199219 192.140625 261.210938 C 195.109375 261.105469 198.078125 261.449219 201.046875 260.996094 C 201.046875 260.996094 201.003906 261.039062 201.003906 261.039062 " fill-opacity="1" fill-rule="nonzero"/><path fill="#2acb4a" d="M 243.917969 209.265625 C 243.917969 206.46875 243.917969 203.691406 243.917969 200.832031 C 241.011719 200.832031 238.304688 200.832031 235.464844 200.832031 C 235.464844 203.628906 235.464844 206.382812 235.464844 209.199219 C 238.304688 209.199219 241.140625 209.199219 243.980469 209.199219 C 243.980469 209.199219 243.917969 209.265625 243.917969 209.265625 " fill-opacity="1" fill-rule="nonzero"/><path fill="#2acb4a" d="M 114.210938 200.855469 C 111.328125 200.855469 108.617188 200.855469 105.777344 200.855469 C 105.777344 203.648438 105.777344 206.339844 105.777344 209.199219 C 108.511719 209.199219 111.285156 209.199219 114.210938 209.199219 C 114.210938 206.46875 114.210938 203.648438 114.210938 200.855469 " fill-opacity="1" fill-rule="nonzero"/><path fill="#2acb4a" d="M 243.851562 174.71875 C 243.851562 171.945312 243.851562 169.167969 243.851562 166.285156 C 240.96875 166.285156 238.195312 166.285156 235.441406 166.285156 L 235.484375 166.242188 C 235.226562 169.0625 235.207031 171.878906 235.484375 174.71875 L 235.441406 174.675781 C 238.257812 174.847656 241.078125 174.871094 243.917969 174.652344 L 243.851562 174.71875 " fill-opacity="1" fill-rule="nonzero"/><path fill="#2acb4a" d="M 278.3125 174.503906 C 281.195312 175.105469 284.097656 174.609375 287.066406 174.804688 C 287.066406 171.859375 287.066406 169.148438 287.066406 166.308594 C 284.292969 166.308594 281.515625 166.308594 278.375 166.308594 C 278.375 169.039062 278.375 171.792969 278.355469 174.566406 C 278.355469 174.566406 278.3125 174.503906 278.3125 174.503906 " fill-opacity="1" fill-rule="nonzero"/><path fill="#2acb4a" d="M 209.394531 218.253906 C 206.617188 217.78125 203.820312 218.234375 200.917969 217.996094 C 200.917969 220.878906 200.917969 223.632812 200.917969 226.515625 C 203.628906 226.515625 206.382812 226.515625 209.328125 226.515625 C 209.328125 223.742188 209.328125 220.964844 209.328125 218.191406 C 209.328125 218.210938 209.394531 218.253906 209.394531 218.253906 " fill-opacity="1" fill-rule="nonzero"/><path fill="#2acb4a" d="M 197.347656 188.613281 C 194.574219 187.882812 191.796875 188.550781 188.871094 188.226562 C 188.871094 192.421875 188.871094 196.445312 188.871094 200.660156 C 191.582031 200.660156 194.335938 200.660156 197.28125 200.660156 C 197.28125 196.617188 197.28125 192.550781 197.28125 188.507812 C 197.28125 188.527344 197.347656 188.613281 197.347656 188.613281 " fill-opacity="1" fill-rule="nonzero"/><path fill="#2acb4a" d="M 235.441406 157.382812 C 238.195312 157.382812 240.925781 157.382812 243.789062 157.382812 C 243.789062 154.671875 243.789062 151.917969 243.789062 149.035156 C 241.011719 149.035156 238.257812 149.035156 235.355469 149.035156 C 235.398438 151.875 235.121094 154.671875 235.507812 157.445312 L 235.441406 157.382812 " fill-opacity="1" fill-rule="nonzero"/><path fill="#2acb4a" d="M 149.015625 140.152344 C 151.808594 140.152344 154.519531 140.152344 157.359375 140.152344 C 157.359375 137.378906 157.359375 134.625 157.359375 131.742188 C 154.628906 131.742188 151.851562 131.742188 149.015625 131.742188 C 149.015625 134.558594 149.015625 137.3125 149.015625 140.152344 " fill-opacity="1" fill-rule="nonzero"/><path fill="#2acb4a" d="M 209.242188 131.632812 C 206.46875 131.632812 203.691406 131.632812 200.832031 131.632812 C 200.832031 134.539062 200.832031 137.246094 200.832031 140.085938 C 203.628906 140.085938 206.382812 140.085938 209.199219 140.085938 C 209.199219 137.246094 209.199219 134.410156 209.199219 131.570312 C 209.199219 131.570312 209.242188 131.632812 209.242188 131.632812 " fill-opacity="1" fill-rule="nonzero"/><path fill="#2acb4a" d="M 200.855469 235.441406 C 200.855469 238.238281 200.855469 240.949219 200.855469 243.789062 C 203.585938 243.789062 206.339844 243.789062 209.242188 243.789062 C 209.242188 241.054688 209.242188 238.304688 209.242188 235.441406 C 206.488281 235.441406 203.777344 235.441406 200.855469 235.441406 " fill-opacity="1" fill-rule="nonzero"/><path fill="#2acb4a" d="M 105.519531 270.074219 C 102.808594 269.601562 100.101562 270.050781 97.21875 269.792969 C 97.21875 272.71875 97.21875 275.515625 97.21875 278.417969 C 99.992188 278.417969 102.746094 278.417969 105.691406 278.417969 C 105.5625 275.558594 105.929688 272.785156 105.476562 270.03125 L 105.519531 270.074219 " fill-opacity="1" fill-rule="nonzero"/><path fill="#2acb4a" d="M 189.90625 166.265625 C 187.152344 166.265625 184.417969 166.265625 181.539062 166.265625 C 181.539062 169.019531 181.539062 171.792969 181.539062 174.675781 C 184.226562 174.675781 186.957031 174.675781 189.839844 174.675781 C 189.839844 171.878906 189.839844 169.039062 189.839844 166.199219 C 189.839844 166.199219 189.90625 166.265625 189.90625 166.265625 " fill-opacity="1" fill-rule="nonzero"/><path fill="#2acb4a" d="M 174.675781 295.671875 C 174.675781 292.746094 174.675781 290.011719 174.675781 287.21875 C 171.859375 287.21875 169.148438 287.21875 166.308594 287.21875 C 166.308594 289.992188 166.308594 292.765625 166.308594 295.671875 C 169.0625 295.671875 171.835938 295.671875 174.675781 295.671875 " fill-opacity="1" fill-rule="nonzero"/><path fill="#2acb4a" d="M 157.382812 287.175781 C 154.5625 287.175781 151.894531 287.175781 149.078125 287.175781 C 149.078125 289.949219 149.078125 292.722656 149.078125 295.628906 C 151.703125 295.628906 154.476562 295.628906 157.382812 295.628906 C 157.382812 292.917969 157.382812 290.140625 157.382812 287.175781 " fill-opacity="1" fill-rule="nonzero"/><path fill="#2acb4a" d="M 140.324219 287.023438 C 143.183594 287.023438 145.960938 287.023438 148.820312 287.023438 C 148.820312 284.269531 148.820312 281.539062 148.820312 278.613281 C 146.046875 278.613281 143.226562 278.613281 140.324219 278.613281 C 140.324219 281.34375 140.324219 284.121094 140.324219 287.023438 " fill-opacity="1" fill-rule="nonzero"/><path fill="#2acb4a" d="M 255.101562 120.46875 C 263.320312 120.46875 271.300781 120.46875 279.515625 120.46875 C 279.085938 116.449219 279.816406 112.53125 279.515625 108.574219 C 279.214844 104.488281 279.453125 100.378906 279.453125 96.011719 C 271.300781 96.011719 263.253906 96.011719 255.101562 96.011719 C 255.101562 104.25 255.101562 112.296875 255.101562 120.46875 " fill-opacity="1" fill-rule="nonzero"/><path fill="#2acb4a" d="M 95.949219 95.796875 C 95.949219 104.015625 95.949219 111.910156 95.949219 119.890625 C 103.90625 119.890625 111.800781 119.890625 119.824219 119.890625 C 119.824219 111.972656 119.824219 104.035156 119.824219 95.796875 C 111.929688 95.796875 104.015625 95.796875 95.949219 95.796875 " fill-opacity="1" fill-rule="nonzero"/><path fill="#2acb4a" d="M 142.582031 246.152344 C 142.582031 241.679688 142.582031 237.527344 142.582031 233.117188 C 138.214844 233.117188 133.890625 233.117188 129.375 233.117188 C 129.375 237.335938 129.375 241.660156 129.375 246.152344 C 133.675781 246.152344 138 246.152344 142.582031 246.152344 " fill-opacity="1" fill-rule="nonzero"/><path fill="#2acb4a" d="M 279.453125 279.410156 L 255.015625 279.410156 L 255.015625 254.972656 L 279.453125 254.972656 L 279.453125 279.410156 " fill-opacity="1" fill-rule="nonzero"/><path fill="#2acb4a" d="M 187.820312 364.050781 C 90.421875 364.050781 11.5 285.128906 11.5 187.730469 C 11.5 90.421875 90.421875 11.5 187.820312 11.5 C 285.195312 11.5 364.09375 90.421875 364.09375 187.730469 C 364.09375 285.128906 285.195312 364.050781 187.820312 364.050781 Z M 187.820312 0.25 C 84.203125 0.25 0.25 84.203125 0.25 187.730469 C 0.25 291.347656 84.203125 375.300781 187.820312 375.300781 C 291.390625 375.300781 375.300781 291.347656 375.300781 187.730469 C 375.300781 84.203125 291.390625 0.25 187.820312 0.25 " fill-opacity="1" fill-rule="nonzero"/></svg>